# xmcd CD database file
#
# Track frame offsets:
#	150
#	21794
#	40575
#	60076
#
# Disc length: 1044 seconds
#
# Revision: 3
# Processed by: cddbd v1.5.2PL0 Copyright (c) Steve Scherf et al.
# Submitted via: CDex 1.70beta3
#
DISCID=20041204
DTITLE=KinKi Kids - Topaz Love/DESTINY(通常盤)
DYEAR=2018
DGENRE=Country
TTITLE0=Topaz Love
TTITLE1=DESTINY
TTITLE2=哀愁のブエノスアイレス
TTITLE3=CLASSIC
EXTD=YEAR: 2018
EXTT0=
EXTT1=
EXTT2=
EXTT3=
PLAYORDER=
